<svg xmlns="http://www.w3.org/2000/svg" x="0px" y="0px"
width="15" height="15"
viewBox="10 0 172 172"
style=" fill:#000000;"><g fill="none" fill-rule="nonzero" stroke="none" stroke-width="1" stroke-linecap="butt" stroke-linejoin="miter" stroke-miterlimit="10" stroke-dasharray="" stroke-dashoffset="0" font-family="none" font-weight="none" font-size="none" text-anchor="none" style="mix-blend-mode: normal"><path d="M0,172v-172h172v172z" fill="none"></path><g fill="#000000"><path d="M74.98405,28.67367c-6.96663,0 -13.66854,2.7063 -18.67952,7.5516l-35.5044,34.31462c-8.69209,8.40235 -8.69209,22.5179 0,30.92025l35.5044,34.32161c5.00955,4.83943 11.71281,7.55412 18.67952,7.55859h59.39095c12.79944,0 23.29167,-10.49222 23.29167,-23.29167v-68.08333c0,-12.79944 -10.49222,-23.29167 -23.29167,-23.29167zM74.98405,39.42366h59.39095c6.98772,0 12.54167,5.55394 12.54167,12.54167v68.08333c0,6.98772 -5.55394,12.54167 -12.54167,12.54167h-59.38395h-0.007c-4.1821,-0.00466 -8.19664,-1.63604 -11.20491,-4.54215v0.007l-35.51139,-34.32161c-4.42291,-4.27548 -4.42291,-11.18464 0,-15.46012l35.51139,-34.32161c3.00851,-2.90904 7.02021,-4.52816 11.20491,-4.52816zM123.57601,57.25635c-1.4195,0.03352 -2.76808,0.6273 -3.7513,1.65169l-19.49137,19.49137l-19.49137,-19.49137c-1.01222,-1.0424 -2.4033,-1.63064 -3.85628,-1.6307c-2.18814,0.00053 -4.1576,1.32735 -4.98006,3.35504c-0.82245,2.0277 -0.33375,4.35156 1.23575,5.87624l19.49137,19.49137l-19.49137,19.49137c-1.40412,1.34815 -1.96971,3.35005 -1.47866,5.23364c0.49105,1.88359 1.96202,3.35456 3.84561,3.84561c1.88359,0.49105 3.88549,-0.07455 5.23364,-1.47866l19.49137,-19.49137l19.49137,19.49137c1.34815,1.40412 3.35005,1.96971 5.23364,1.47866c1.88359,-0.49105 3.35456,-1.96202 3.84561,-3.84561c0.49105,-1.88359 -0.07455,-3.88549 -1.47866,-5.23364l-19.49137,-19.49137l19.49137,-19.49137c1.59981,-1.53549 2.09259,-3.89575 1.24083,-5.94309c-0.85177,-2.04734 -2.87328,-3.36156 -5.09011,-3.30919z"></path></g></g></svg>